<svg xmlns="http://www.w3.org/2000/svg" viewBox="0 0 23.38 28.75"><defs><style>.cls-1{fill:none;stroke:#202020;stroke-miterlimit:10;stroke-width:.75px}</style></defs><g id="Layer_2" data-name="Layer 2"><g id="Layer_1-2" data-name="Layer 1"><path class="cls-1" d="M15.76 11.17a56.65 56.65 0 0 1 5.61 3.1 4.07 4.07 0 0 1 .94 1 3.93 3.93 0 0 1 .7 2.28V23h-6M7.62 11.17A56.65 56.65 0 0 0 2 14.27a4.07 4.07 0 0 0-.94 1 4 4 0 0 0-.69 2.28V23h5.95"/><ellipse class="cls-1" cx="11.69" cy="6.73" rx="5.7" ry="6.35"/><path d="M11.69 1.68a3.68 3.68 0 0 0-1.24.22 5 5 0 0 1 3 4.83 5 5 0 0 1-3 4.82 3.45 3.45 0 0 0 1.24.22c2.34 0 4.24-2.26 4.24-5S14 1.68 11.69 1.68z" style="fill:#ffc62a"/><path class="cls-1" d="m9.4 20.72 4.58 4.58M13.98 20.72 9.4 25.3M17.06 23a5.37 5.37 0 1 1-5.37-5.37A5.37 5.37 0 0 1 17.06 23z"/></g></g></svg>