<svg xmlns="http://www.w3.org/2000/svg" viewBox="0 0 25.24 28.75"><defs><style>.cls-1{fill:none;stroke:#202020;stroke-linecap:round;stroke-width:.75px;stroke-miterlimit:10}</style></defs><g id="Layer_2" data-name="Layer 2"><g id="Layer_1-2" data-name="Layer 1"><path class="cls-1" d="M12.21 22.81H.38V.38h12.87a1.56 1.56 0 0 1 1.57 1.56v2.88h2.88a1.56 1.56 0 0 1 1.56 1.56V16"/><path class="cls-1" d="M14.68 11.59a4.86 4.86 0 1 1-4.86-4.86 4.87 4.87 0 0 1 4.86 4.86z"/><path class="cls-1" d="M11.57 13a1.37 1.37 0 0 1-1.23.77h-.87a1.55 1.55 0 0 1-1.54-1.55V11a1.54 1.54 0 0 1 1.54-1.6h.87a1.38 1.38 0 0 1 1.23.76"/><path style="fill:#ffc62a" d="m6.81 21.59-5.18-5.18v5.18h5.18z"/><path d="M24.87 22.81a5.57 5.57 0 1 0-5.57 5.56 5.57 5.57 0 0 0 5.57-5.56z" style="stroke-linejoin:round;fill:none;stroke:#202020;stroke-linecap:round;stroke-width:.75px"/><path class="cls-1" d="m16.4 22.68 2.01 2.02 3.79-3.79"/></g></g></svg>