<svg xmlns="http://www.w3.org/2000/svg" viewBox="0 0 30.92 28.75"><defs><style>.cls-1{fill:none;stroke:#202020;stroke-miterlimit:10;stroke-width:.75px}</style></defs><g id="Layer_2" data-name="Layer 2"><g id="Layer_1-2" data-name="Layer 1"><path class="cls-1" d="M25.01 4.63h-1.78M26.19 9.25h-2.62M27.06 13.89h-3.18M.38 19.55h7.06a1 1 0 0 0 1-1V1.35a1 1 0 0 0-1-1H.38z"/><path class="cls-1" d="M8.42 3S13.59.41 24.93.41a2.14 2.14 0 0 1 2.39 2.11A2.17 2.17 0 0 1 25 4.63h1a2.37 2.37 0 0 1 2.39 2.16 2.31 2.31 0 0 1-2.31 2.47h1a2.36 2.36 0 0 1 2.39 2.16 2.31 2.31 0 0 1-2.31 2.47h1a2.38 2.38 0 0 1 2.39 2.17 2.31 2.31 0 0 1-2.31 2.47h-8.47a1.11 1.11 0 0 0-1.08 1.34 11.27 11.27 0 0 1-.89 7.43 1.87 1.87 0 0 1-3.57-.77c0-8.1-5.81-9-5.81-9"/><path d="M7 7V1.79H1.79v8.12A9.85 9.85 0 0 1 7 7z" style="fill:#ffc62a"/></g></g></svg>