<svg width="56" height="56" fill="none" xmlns="http://www.w3.org/2000/svg"><g clip-path="url(#a)" fill="#EE2B60"><path d="M55.113 29.869H29.869a.928.928 0 0 0-.928.927v6.022a3.468 3.468 0 0 0-4.033.672l-4.341 4.342v-15.7h5.592a.927.927 0 0 0 .94-.928V.928A.927.927 0 0 0 26.16 0H.928A.928.928 0 0 0 0 .928v24.276a.927.927 0 0 0 .928.928h13.079v2.177a3.24 3.24 0 0 0-4.49 1.976 3.213 3.213 0 0 0-4.382 1.223 2.77 2.77 0 0 0-.282.646 3.159 3.159 0 0 0-1.882-.404A3.374 3.374 0 0 0 0 35.165v19.948a.927.927 0 0 0 .927.927h18.67a.93.93 0 0 0 .942-.927v-4.315l8.401-8.065v12.38a.928.928 0 0 0 .928.927h25.244a.928.928 0 0 0 .928-.927V30.796a.928.928 0 0 0-.928-.927ZM1.869 24.263V1.868h23.335v22.395H20.54v-1.237c.019-.21.019-.421 0-.631a.927.927 0 0 0 .968-.887V4.663a.927.927 0 0 0-.928-.927H6.533a.928.928 0 0 0-.928.927v16.844a.927.927 0 0 0 .928.927h7.514a2.78 2.78 0 0 0 0 .47v1.345l-12.178.013Zm17.73-18.658V20.54h-.108l-.094-.095-.255-.215-.256-.174-.215-.121-.363-.148-.174-.067a2.781 2.781 0 0 0-.565-.108c-.22-.02-.44-.02-.659 0l-.497.108h-.175l-.35.148-.281.147c-.073.042-.14.092-.202.148l-.31.229H7.475V5.605h12.125Zm-.928 48.527H1.87v-2.796H18.67v2.796Zm9.679-13.443-9.128 8.778H1.87V35.165a1.519 1.519 0 0 1 1.344-1.56 1.344 1.344 0 0 1 1.519 1.264v3.4h1.801v-4.973a1.519 1.519 0 0 1 1.277-1.559 1.344 1.344 0 0 1 1.519 1.264v4.328h1.868v-5.901a1.533 1.533 0 0 1 1.277-1.56 1.344 1.344 0 0 1 1.48 1.062V35.474h1.908V22.852a1.451 1.451 0 0 1 .51-1.076c.072-.052.149-.097.23-.134l.241-.067H17.26c.102.012.201.04.296.08h.094l.174.108.175.134.135.162c.213.288.33.636.336.994v20.97a.968.968 0 0 0 1.653.686l5.874-5.875a1.56 1.56 0 0 1 2.232-.242 1.518 1.518 0 0 1 .524 1.049 1.344 1.344 0 0 1-.403 1.048Zm25.782 13.443H30.796V31.737h23.336v22.395Z"/><path d="M55.113 0H29.868a.927.927 0 0 0-.927.928v24.276a.928.928 0 0 0 .927.927h25.245a.927.927 0 0 0 .927-.927V.928A.927.927 0 0 0 55.113 0Zm-.941 24.263H30.796V1.868h23.336l.04 22.395ZM17.73 8.401H9.33v1.869h8.401V8.4ZM17.73 12.138H9.33v1.869h8.401v-1.869ZM17.73 15.862H9.33v1.868h8.401v-1.868Z"/><path d="M38.27 22.395h9.329a.927.927 0 0 0 .94-.928v-6.533a5.606 5.606 0 0 0-2.836-4.906 3.738 3.738 0 0 0-2.688-6.333 3.737 3.737 0 0 0-2.689 6.333 5.632 5.632 0 0 0-2.903 4.906v6.574a.942.942 0 0 0 .847.887Zm4.664-16.79a1.868 1.868 0 1 1-1.868 1.855 1.856 1.856 0 0 1 1.868-1.855Zm-3.737 9.33a3.737 3.737 0 1 1 7.474 0v5.605h-7.474v-5.606ZM42.934 51.336a8.4 8.4 0 1 0 0-16.802 8.4 8.4 0 0 0 0 16.802Zm0-1.869a6.48 6.48 0 0 1-4.557-1.868h9.114a6.48 6.48 0 0 1-4.557 1.868Zm0-13.066a6.48 6.48 0 0 1 4.557 1.869h-9.114a6.48 6.48 0 0 1 4.557-1.869Zm-5.9 3.737h11.801c.283.59.473 1.22.565 1.869H36.469a6.396 6.396 0 0 1 .564-1.869ZM49.4 43.862a6.4 6.4 0 0 1-.565 1.841H37.033a6.396 6.396 0 0 1-.565-1.868l12.932.027Z"/></g><defs><clipPath id="a"><path fill="#fff" d="M0 0h56v56H0z"/></clipPath></defs></svg>