<svg width="56" height="56" fill="none" xmlns="http://www.w3.org/2000/svg"><g clip-path="url(#a)" fill="#EE2B60"><path d="M54.192 19.876h-9.028V1.808A1.808 1.808 0 0 0 43.356 0h-32.52a1.808 1.808 0 0 0-1.808 1.808v.529L7.491.799A2.694 2.694 0 0 0 5.57 0a5.572 5.572 0 0 0-5.57 5.572A2.694 2.694 0 0 0 .8 7.49l.627.64-.529.48A3.063 3.063 0 0 0 0 10.836c0 .82.322 1.606.898 2.19l5.055 5.042a3.063 3.063 0 0 0 2.177.898c.305-.005.608-.055.898-.148v24.6h-7.22A1.808 1.808 0 0 0 0 45.163v3.616A7.232 7.232 0 0 0 7.232 56h30.75a7.232 7.232 0 0 0 7.231-7.22v-9.04h9.028a1.808 1.808 0 0 0 1.808-1.808V21.684a1.806 1.806 0 0 0-1.857-1.808Zm-10.836 1.808h5.424v3.604h-5.424v-3.604ZM5.572 1.808a.935.935 0 0 1 .64.258l6.961 6.962-4.145 4.145L2.066 6.21a.935.935 0 0 1-.258-.64 3.764 3.764 0 0 1 3.764-3.763Zm21.487 7.749-5.412 5.424-5.387-5.424V7.232h10.8v2.325Zm-16.789 4.92 4.145-4.145 10.27 10.27.185.209-4.084 4.096a1.596 1.596 0 0 1-.209-.197L10.27 14.477Zm8.991 11.537a9.84 9.84 0 0 0 7.06 2.89h.738v7.232H16.26V25.288h2.337l.664.726Zm7.798 1.045h-.738a8.08 8.08 0 0 1-4.07-1.095l3.75-3.75a8.08 8.08 0 0 1 1.058 4.107v.738Zm-2.337-9.028-1.808-1.808 4.145-4.108v5.953l-2.337-.037Zm-17.527-1.23-5.018-5.055A1.316 1.316 0 0 1 1.9 10.35a1.23 1.23 0 0 1 .277-.41l.529-.53 6.85 6.851-.528.529a1.303 1.303 0 0 1-1.796 0l-.037.012Zm0 37.403a5.413 5.413 0 0 1-5.424-5.412v-3.628H30.75v3.616a7.183 7.183 0 0 0 2.46 5.412l-26.014.012Zm36.124-5.412a5.424 5.424 0 0 1-10.836 0v-3.628a1.808 1.808 0 0 0-1.734-1.808H10.836v-25.83l5.953 5.942h-2.337v14.464h14.452v-11.61a9.84 9.84 0 0 0-2.386-6.446h2.386v-9.569l5.154-5.153-1.23-1.23-3.924 3.837V5.424H14.452v2.337l-3.616-3.616V1.808h32.52v18.068h-5.424a1.796 1.796 0 0 0-1.796 1.808v9.065H32.52v1.808h3.616v1.808H32.52v1.808h3.616v1.796a1.796 1.796 0 0 0 1.796 1.808h5.424l-.037 9.015Zm-5.424-10.848v-16.26h3.616v5.375h9.04v-5.412h3.604v16.285l-16.26.012Z"/><path d="M52.396 34.328h-1.808v1.808h1.808v-1.808ZM48.78 34.328h-1.808v1.808h1.808v-1.808ZM45.164 34.328h-1.808v1.808h1.808v-1.808ZM34.328 9.028H32.52v1.808h1.808V9.028ZM39.752 9.028h-3.616v1.808h3.616V9.028ZM39.752 12.644H32.52v1.808h7.232v-1.808ZM39.752 16.26H32.52v1.808h7.232V16.26ZM34.328 27.096H32.52v1.808h1.808v-1.808Z"/></g><defs><clipPath id="a"><path fill="#fff" d="M0 0h56v56H0z"/></clipPath></defs></svg>