<svg width="56" height="56" fill="none" xmlns="http://www.w3.org/2000/svg"><g clip-path="url(#a)" fill="#EE2B60"><path d="M51.808 56H4.204A4.191 4.191 0 0 1 0 51.808V4.204A4.204 4.204 0 0 1 4.204 0h47.604A4.192 4.192 0 0 1 56 4.204v47.604A4.192 4.192 0 0 1 51.808 56ZM4.204 1.866a2.339 2.339 0 0 0-2.338 2.338v47.604a2.339 2.339 0 0 0 2.338 2.326h47.604a2.339 2.339 0 0 0 2.326-2.326V4.204a2.338 2.338 0 0 0-2.326-2.338H4.204Z"/><path d="M8.396 9.33H4.665a.933.933 0 0 1-.933-.934V4.665a.933.933 0 0 1 .933-.933h3.731a.933.933 0 0 1 .933.933v3.731a.92.92 0 0 1-.933.933ZM5.597 7.462h1.866V5.597H5.597v1.866ZM15.872 9.33h-3.744a.933.933 0 0 1-.933-.934V4.665a.933.933 0 0 1 .933-.933h3.744a.933.933 0 0 1 .933.933v3.731a.933.933 0 0 1-.933.933Zm-2.799-1.867h1.866V5.597h-1.866v1.866ZM23.335 9.33h-3.731a.92.92 0 0 1-.933-.934V4.665a.933.933 0 0 1 .933-.933h3.732a.933.933 0 0 1 .932.933v3.731a.933.933 0 0 1-.933.933Zm-2.798-1.867h1.866V5.597h-1.866v1.866Z"/><path d="M55.067 13.073H.933A.946.946 0 0 1 0 12.128V4.204A4.204 4.204 0 0 1 4.204 0h47.604A4.192 4.192 0 0 1 56 4.204v7.924a.933.933 0 0 1-.933.945ZM1.866 11.195h52.268v-6.99a2.338 2.338 0 0 0-2.326-2.34H4.204a2.339 2.339 0 0 0-2.338 2.34v6.99ZM44.805 32.664H20.524a.933.933 0 1 1 0-1.865h24.281a.933.933 0 0 1 0 1.865ZM49.47 36.396H20.537a.932.932 0 1 1 0-1.866H49.47a.933.933 0 1 1 0 1.866ZM15.872 26.134H6.53a.933.933 0 0 1-.933-.933v-5.597a.933.933 0 0 1 .933-.933h9.342a.933.933 0 0 1 .933.933V25.2a.933.933 0 0 1-.933.933Zm-8.409-1.853h7.476v-3.744H7.463v3.744ZM44.805 19.604H20.524a.933.933 0 1 1 0-1.866h24.281a.933.933 0 0 1 0 1.866ZM49.47 23.335H20.537a.933.933 0 1 1 0-1.865H49.47a.933.933 0 1 1 0 1.866ZM44.805 45.738H20.524a.933.933 0 0 1 0-1.866h24.281a.933.933 0 0 1 0 1.866ZM49.47 49.47H20.537a.933.933 0 0 1 0-1.866H49.47a.933.933 0 1 1 0 1.866Z"/><path d="M14.057 20.537h-5.66a.933.933 0 0 1-.934-.933v-3.732a.933.933 0 0 1 .933-.933h5.661a.933.933 0 0 1 .933.933v3.732a.933.933 0 0 1-.933.933ZM9.33 18.67h3.744v-1.866H9.33v1.866ZM15.872 39.208H6.53a.933.933 0 0 1-.933-.87v-5.674a.933.933 0 0 1 .933-.932h9.342a.933.933 0 0 1 .933.932v5.675a.933.933 0 0 1-.933.869Zm-8.409-1.879h7.476v-3.732H7.463v3.732Z"/><path d="M14.057 33.597h-5.66a.933.933 0 0 1-.934-.933v-3.731A.933.933 0 0 1 8.396 28h5.661a.933.933 0 0 1 .933.933v3.731a.933.933 0 0 1-.933.933ZM9.33 31.732h3.744v-1.866H9.33v1.866ZM15.872 52.268H6.53a.933.933 0 0 1-.933-.932v-5.598a.933.933 0 0 1 .933-.933h9.342a.933.933 0 0 1 .933.933v5.598a.933.933 0 0 1-.933.932Zm-8.409-1.865h7.476V46.67H7.463v3.732Z"/><path d="M14.057 46.67h-5.66a.933.933 0 0 1-.934-.932v-3.732a.933.933 0 0 1 .933-.932h5.661a.933.933 0 0 1 .933.932v3.732a.933.933 0 0 1-.933.933ZM9.33 44.806h3.744V42.94H9.33v1.866Z"/></g><defs><clipPath id="a"><path fill="#fff" d="M0 0h56v56H0z"/></clipPath></defs></svg>