<svg width="284" height="143" viewBox="0 0 284 143" fill="none" xmlns="http://www.w3.org/2000/svg">
<g clip-path="url(#clip0)">
<g opacity="0.8">
<g opacity="0.8">
<path opacity="0.8" d="M274.42 0.449993C274.42 0.449993 273.99 0.449993 273.14 0.449993L269.35 0.499992L254.72 0.569992L200.29 0.709991L15.39 0.869991L15.84 0.409992C15.84 20.64 15.84 41.62 15.84 63.09C15.84 85.21 15.84 106.81 15.84 127.66L15.39 127.21L199.01 127.37L253.01 127.5L267.52 127.58H271.27H272.55C272.55 127.58 272.12 127.58 271.27 127.58H267.52L253.01 127.65L199.01 127.79L15.39 127.95H14.94V127.49C14.94 106.64 14.94 85.04 14.94 62.92C14.94 41.45 14.94 20.47 14.94 0.239992V-0.210007H15.39L200.29 -0.0500069L254.72 0.0799923L269.35 0.159992H273.14H274.42" fill="#C1C1C1"/>
<path opacity="0.8" d="M274.42 21.88C274.42 22.13 216.42 22.34 144.91 22.34C73.4 22.34 15.39 22.13 15.39 21.88C15.39 21.63 73.39 21.41 144.91 21.41C216.43 21.41 274.42 21.62 274.42 21.88Z" fill="#C1C1C1"/>
<path opacity="0.8" d="M274.42 39.4C274.42 39.66 216.42 39.87 144.91 39.87C73.4 39.87 15.39 39.66 15.39 39.4C15.39 39.14 73.39 38.94 144.91 38.94C216.43 38.94 274.42 39.15 274.42 39.4Z" fill="#C1C1C1"/>
<path opacity="0.8" d="M274.42 56.93C274.42 57.19 216.42 57.39 144.91 57.39C73.4 57.39 15.39 57.19 15.39 56.93C15.39 56.67 73.39 56.47 144.91 56.47C216.43 56.47 274.42 56.68 274.42 56.93Z" fill="#C1C1C1"/>
<path opacity="0.8" d="M274.42 74.46C274.42 74.71 216.42 74.92 144.91 74.92C73.4 74.92 15.39 74.71 15.39 74.46C15.39 74.21 73.39 74 144.91 74C216.43 74 274.42 74.2 274.42 74.46Z" fill="#C1C1C1"/>
<path opacity="0.8" d="M274.42 91.99C274.42 92.24 216.42 92.45 144.91 92.45C73.4 92.45 15.39 92.24 15.39 91.99C15.39 91.74 73.39 91.53 144.91 91.53C216.43 91.53 274.42 91.73 274.42 91.99Z" fill="#C1C1C1"/>
<path opacity="0.8" d="M15.39 109.52C15.39 109.26 73.39 109.05 144.9 109.05C216.41 109.05 274.42 109.26 274.42 109.52C274.42 109.78 216.42 109.98 144.9 109.98C73.38 109.98 15.39 109.77 15.39 109.52Z" fill="#C1C1C1"/>
<path opacity="0.8" d="M66.69 129.64C66.43 129.64 66.22 100.72 66.22 65.05C66.22 29.38 66.43 0.449997 66.69 0.449997C66.95 0.449997 67.11 29.34 67.11 65.05C67.11 100.76 66.9 129.64 66.65 129.64" fill="#C1C1C1"/>
<path opacity="0.8" d="M118.62 129.64C118.36 129.64 118.16 100.72 118.16 65.05C118.16 29.38 118.36 0.449997 118.62 0.449997C118.88 0.449997 119.11 29.34 119.11 65.05C119.11 100.76 118.9 129.64 118.65 129.64" fill="#C1C1C1"/>
<path opacity="0.8" d="M170.55 129.64C170.3 129.64 170.09 100.72 170.09 65.05C170.09 29.38 170.3 0.449997 170.55 0.449997C170.8 0.449997 171.02 29.37 171.02 65.05C171.02 100.73 170.81 129.64 170.55 129.64Z" fill="#C1C1C1"/>
<path opacity="0.8" d="M222.49 129.64C222.23 129.64 222.03 100.72 222.03 65.05C222.03 29.38 222.23 0.449997 222.49 0.449997C222.75 0.449997 222.95 29.37 222.95 65.05C222.95 100.73 222.74 129.64 222.49 129.64Z" fill="#C1C1C1"/>
<path opacity="0.8" d="M274.42 129.64C274.17 129.64 273.96 100.72 273.96 65.05C273.96 29.38 274.17 0.449997 274.42 0.449997C274.67 0.449997 274.89 29.37 274.89 65.05C274.89 100.73 274.68 129.64 274.42 129.64Z" fill="#C1C1C1"/>
<path opacity="0.8" d="M45 142.21C45 142.47 42.76 142.67 40 142.67C37.24 142.67 35 142.47 35 142.21C35 141.95 37.24 141.75 40 141.75C42.76 141.75 45 141.96 45 142.21Z" fill="#C1C1C1"/>
<path opacity="0.8" d="M98.11 142.21C98.11 142.47 95.87 142.67 93.11 142.67C90.35 142.67 88.11 142.47 88.11 142.21C88.11 141.95 90.35 141.75 93.11 141.75C95.87 141.75 98.11 141.96 98.11 142.21Z" fill="#C1C1C1"/>
<path opacity="0.8" d="M151.16 142.21C151.16 142.47 148.93 142.67 146.16 142.67C143.39 142.67 141.16 142.47 141.16 142.21C141.16 141.95 143.4 141.75 146.16 141.75C148.92 141.75 151.16 141.96 151.16 142.21Z" fill="#C1C1C1"/>
<path opacity="0.8" d="M204.25 142.21C204.25 142.47 202.01 142.67 199.25 142.67C196.49 142.67 194.25 142.47 194.25 142.21C194.25 141.95 196.48 141.75 199.25 141.75C202.02 141.75 204.25 141.96 204.25 142.21Z" fill="#C1C1C1"/>
<path opacity="0.8" d="M257.33 142.21C257.33 142.47 255.09 142.67 252.33 142.67C249.57 142.67 247.33 142.47 247.33 142.21C247.33 141.95 249.57 141.75 252.33 141.75C255.09 141.75 257.33 141.96 257.33 142.21Z" fill="#C1C1C1"/>
<path opacity="0.8" d="M8.10999 127C8.10999 127.25 6.29999 127.46 4.10999 127.46C1.91999 127.46 0.109985 127.25 0.109985 127C0.109985 126.75 1.90999 126.53 4.10999 126.53C6.30999 126.53 8.10999 126.74 8.10999 127Z" fill="#C1C1C1"/>
<path opacity="0.8" d="M8.10999 106.61C8.10999 106.86 6.29999 107.07 4.10999 107.07C1.91999 107.07 0.109985 106.86 0.109985 106.61C0.109985 106.36 1.90999 106.15 4.10999 106.15C6.30999 106.15 8.10999 106.35 8.10999 106.61Z" fill="#C1C1C1"/>
<path opacity="0.8" d="M8.10999 86.22C8.10999 86.48 6.29999 86.69 4.10999 86.69C1.91999 86.69 0.109985 86.48 0.109985 86.22C0.109985 85.96 1.90999 85.76 4.10999 85.76C6.30999 85.76 8.10999 85.97 8.10999 86.22Z" fill="#C1C1C1"/>
<path opacity="0.8" d="M8.10999 65.84C8.10999 66.09 6.29999 66.3 4.10999 66.3C1.91999 66.3 0.109985 66.09 0.109985 65.84C0.109985 65.59 1.90999 65.37 4.10999 65.37C6.30999 65.37 8.10999 65.58 8.10999 65.84Z" fill="#C1C1C1"/>
<path opacity="0.8" d="M8.10999 45.45C8.10999 45.7 6.29999 45.91 4.10999 45.91C1.91999 45.91 0.109985 45.7 0.109985 45.45C0.109985 45.2 1.90999 44.99 4.10999 44.99C6.30999 44.99 8.10999 45.19 8.10999 45.45Z" fill="#C1C1C1"/>
<path opacity="0.8" d="M8.10999 25.06C8.10999 25.32 6.29999 25.52 4.10999 25.52C1.91999 25.52 0.109985 25.32 0.109985 25.06C0.109985 24.8 1.90999 24.6 4.10999 24.6C6.30999 24.6 8.10999 24.81 8.10999 25.06Z" fill="#C1C1C1"/>
<path opacity="0.8" d="M8.10999 4.67999C8.10999 4.92999 6.29999 5.13999 4.10999 5.13999C1.91999 5.13999 0.109985 4.92999 0.109985 4.67999C0.109985 4.42999 1.90999 4.20999 4.10999 4.20999C6.30999 4.20999 8.10999 4.41999 8.10999 4.67999Z" fill="#C1C1C1"/>
<path opacity="0.8" d="M274.42 109.52C274.068 109.381 273.733 109.203 273.42 108.99L270.65 107.26L260.16 100.47L222.11 75.34H222.9C208.11 85.34 190.42 97.23 171.05 110.25L170.35 110.73L169.84 110.04L142.53 73.23L117.9 39.94L119.26 40.03L67.17 92.47L67.05 92.58L66.9 92.63L28.3 105.17L17.76 108.48L15 109.3C14.6768 109.414 14.341 109.488 14 109.52C14.2793 109.342 14.5823 109.204 14.9 109.11L17.6 108.11L28.11 104.45L66.47 91.34L66.2 91.51L117.98 38.77L118.71 38.03L119.34 38.87C127.21 49.47 135.49 60.64 144.01 72.13L171.27 108.99L170.06 108.78L222.06 74.2L222.46 73.93L222.86 74.2L260.6 99.81L270.88 106.91L273.53 108.81C273.846 109.009 274.135 109.248 274.39 109.52" fill="#C1C1C1"/>
<path opacity="0.8" d="M121.78 39.4C121.78 40.025 121.595 40.6359 121.247 41.1556C120.9 41.6753 120.407 42.0803 119.829 42.3195C119.252 42.5586 118.616 42.6212 118.003 42.4993C117.391 42.3773 116.827 42.0764 116.386 41.6344C115.944 41.1925 115.643 40.6295 115.521 40.0165C115.399 39.4035 115.461 38.7681 115.701 38.1907C115.94 37.6133 116.345 37.1198 116.864 36.7725C117.384 36.4253 117.995 36.24 118.62 36.24C119.458 36.24 120.262 36.5729 120.854 37.1655C121.447 37.7581 121.78 38.5619 121.78 39.4" fill="#C1C1C1"/>
<path opacity="0.8" d="M69.85 91.99C69.852 92.6174 69.6677 93.2312 69.3206 93.7539C68.9735 94.2765 68.4791 94.6843 67.9 94.9258C67.321 95.1673 66.6833 95.2315 66.0677 95.1103C65.4521 94.9891 64.8864 94.688 64.442 94.2451C63.9977 93.8021 63.6948 93.2373 63.5717 92.6221C63.4485 92.0069 63.5107 91.369 63.7504 90.7892C63.99 90.2094 64.3963 89.7137 64.9178 89.3649C65.4393 89.0162 66.0526 88.83 66.68 88.83C67.519 88.83 68.3238 89.1626 68.918 89.7549C69.5122 90.3473 69.8473 91.151 69.85 91.99" fill="#C1C1C1"/>
<path opacity="0.8" d="M173.72 109.52C173.72 110.147 173.534 110.76 173.186 111.281C172.837 111.802 172.342 112.209 171.763 112.449C171.184 112.689 170.546 112.751 169.932 112.629C169.317 112.507 168.752 112.205 168.308 111.762C167.865 111.318 167.563 110.753 167.441 110.138C167.319 109.524 167.381 108.886 167.621 108.307C167.861 107.728 168.268 107.233 168.789 106.884C169.31 106.536 169.923 106.35 170.55 106.35C171.391 106.35 172.197 106.684 172.792 107.278C173.386 107.873 173.72 108.679 173.72 109.52Z" fill="#C1C1C1"/>
<path opacity="0.8" d="M225.65 77.62C225.65 78.245 225.465 78.8559 225.117 79.3756C224.77 79.8952 224.277 80.3003 223.699 80.5395C223.122 80.7786 222.486 80.8412 221.874 80.7193C221.261 80.5973 220.697 80.2964 220.256 79.8544C219.814 79.4125 219.513 78.8495 219.391 78.2365C219.269 77.6235 219.331 76.9881 219.571 76.4107C219.81 75.8333 220.215 75.3398 220.734 74.9925C221.254 74.6453 221.865 74.46 222.49 74.46C223.328 74.46 224.132 74.7929 224.724 75.3855C225.317 75.9781 225.65 76.7819 225.65 77.62" fill="#C1C1C1"/>
<path opacity="0.8" d="M282.23 18.73C281.615 19.3128 280.945 19.8352 280.23 20.29L274.23 24.53L251.85 39.97C232.78 53.03 206.11 71.16 175.79 91.65L175.4 91.91L174.96 91.76L152.24 84.12L121.48 73.72L122.3 73.61L68.7 109.52H68.62H68.54L29.85 122.97L19.23 126.52L16.44 127.4C16.1176 127.518 15.7816 127.595 15.44 127.63C15.44 127.63 15.73 127.45 16.34 127.19L19.11 126.12L29.6 122.19L68.07 108.19L67.9 108.27L121.28 72.04L121.66 71.78L122.1 71.93L152.85 82.34L175.56 90.02L174.74 90.13C205.11 69.67 231.9 51.73 251.11 38.94L273.82 23.94L279.99 19.94C280.683 19.4468 281.419 19.0183 282.19 18.66" fill="#FFD5E0"/>
<path opacity="0.8" d="M282.23 18.73C281.615 19.3128 280.945 19.8353 280.23 20.29L274.23 24.53L251.85 39.97C232.78 53.03 206.11 71.16 175.79 91.65L175.4 91.91L174.96 91.76L152.24 84.12L121.48 73.72L122.3 73.61L68.7 109.52H68.62H68.54L29.85 122.97L19.23 126.52L16.44 127.4C16.1176 127.518 15.7816 127.595 15.44 127.63C15.44 127.63 15.73 127.45 16.34 127.19L19.11 126.12L29.6 122.19L68.07 108.19L67.9 108.27L121.28 72.04L121.66 71.78L122.1 71.93L152.85 82.34L175.56 90.02L174.74 90.13C205.11 69.67 231.9 51.73 251.11 38.94L273.82 23.94L279.99 19.94C280.698 19.4688 281.448 19.0638 282.23 18.73Z" stroke="#FFD5E0" stroke-width="2" stroke-miterlimit="10" stroke-linecap="round"/>
<path opacity="0.8" d="M71.43 108.96C71.43 109.589 71.2435 110.204 70.8941 110.727C70.5446 111.25 70.048 111.657 69.4669 111.898C68.8858 112.139 68.2465 112.202 67.6296 112.079C67.0127 111.956 66.4461 111.653 66.0014 111.209C65.5566 110.764 65.2538 110.197 65.1311 109.58C65.0084 108.964 65.0714 108.324 65.312 107.743C65.5527 107.162 65.9603 106.665 66.4833 106.316C67.0062 105.966 67.621 105.78 68.25 105.78C69.0934 105.78 69.9022 106.115 70.4986 106.711C71.0949 107.308 71.43 108.117 71.43 108.96Z" fill="#FFD5E0"/>
<path opacity="0.8" d="M71.43 108.96C71.43 109.589 71.2435 110.204 70.8941 110.727C70.5446 111.25 70.048 111.657 69.4669 111.898C68.8858 112.139 68.2465 112.202 67.6296 112.079C67.0127 111.956 66.4461 111.653 66.0014 111.209C65.5566 110.764 65.2538 110.197 65.1311 109.58C65.0084 108.964 65.0714 108.324 65.312 107.743C65.5527 107.162 65.9603 106.665 66.4833 106.316C67.0062 105.966 67.621 105.78 68.25 105.78C69.0934 105.78 69.9022 106.115 70.4986 106.711C71.0949 107.308 71.43 108.117 71.43 108.96Z" stroke="#FFD5E0" stroke-width="2" stroke-miterlimit="10" stroke-linecap="round"/>
<path opacity="0.8" d="M124.94 72.84C124.94 73.4689 124.753 74.0838 124.404 74.6067C124.055 75.1297 123.558 75.5372 122.977 75.7779C122.396 76.0186 121.756 76.0816 121.14 75.9589C120.523 75.8362 119.956 75.5333 119.511 75.0886C119.067 74.6439 118.764 74.0772 118.641 73.4604C118.518 72.8435 118.581 72.2041 118.822 71.6231C119.063 71.042 119.47 70.5453 119.993 70.1959C120.516 69.8465 121.131 69.66 121.76 69.66C122.603 69.66 123.412 69.995 124.009 70.5914C124.605 71.1878 124.94 71.9966 124.94 72.84Z" fill="#FFD5E0"/>
<path opacity="0.8" d="M124.94 72.84C124.94 73.4689 124.753 74.0838 124.404 74.6067C124.055 75.1297 123.558 75.5372 122.977 75.7779C122.396 76.0186 121.756 76.0816 121.14 75.9589C120.523 75.8362 119.956 75.5333 119.511 75.0886C119.067 74.6439 118.764 74.0772 118.641 73.4604C118.518 72.8435 118.581 72.2041 118.822 71.6231C119.063 71.042 119.47 70.5453 119.993 70.1959C120.516 69.8465 121.131 69.66 121.76 69.66C122.603 69.66 123.412 69.995 124.009 70.5914C124.605 71.1878 124.94 71.9966 124.94 72.84Z" stroke="#FFD5E0" stroke-width="2" stroke-miterlimit="10" stroke-linecap="round"/>
<path opacity="0.8" d="M178.46 90.59C178.46 91.2189 178.273 91.8338 177.924 92.3567C177.575 92.8797 177.078 93.2872 176.497 93.5279C175.916 93.7686 175.276 93.8316 174.66 93.7089C174.043 93.5862 173.476 93.2833 173.031 92.8386C172.587 92.3939 172.284 91.8272 172.161 91.2104C172.038 90.5935 172.101 89.9541 172.342 89.3731C172.583 88.792 172.99 88.2953 173.513 87.9459C174.036 87.5965 174.651 87.41 175.28 87.41C176.123 87.41 176.932 87.745 177.529 88.3414C178.125 88.9378 178.46 89.7466 178.46 90.59" fill="#FFD5E0"/>
<path opacity="0.8" d="M178.46 90.59C178.46 91.2189 178.273 91.8338 177.924 92.3567C177.575 92.8797 177.078 93.2872 176.497 93.5279C175.916 93.7686 175.276 93.8316 174.66 93.7089C174.043 93.5862 173.476 93.2833 173.031 92.8386C172.587 92.3939 172.284 91.8272 172.161 91.2104C172.038 90.5935 172.101 89.9541 172.342 89.3731C172.583 88.792 172.99 88.2953 173.513 87.9459C174.036 87.5965 174.651 87.41 175.28 87.41C176.123 87.41 176.932 87.745 177.529 88.3414C178.125 88.9378 178.46 89.7466 178.46 90.59V90.59Z" stroke="#FFD5E0" stroke-width="2" stroke-miterlimit="10" stroke-linecap="round"/>
<path opacity="0.8" d="M232.52 54.93C232.52 55.5589 232.333 56.1738 231.984 56.6967C231.635 57.2197 231.138 57.6272 230.557 57.8679C229.976 58.1086 229.336 58.1716 228.72 58.0489C228.103 57.9262 227.536 57.6233 227.091 57.1786C226.647 56.7339 226.344 56.1672 226.221 55.5504C226.098 54.9335 226.161 54.2941 226.402 53.7131C226.643 53.132 227.05 52.6353 227.573 52.2859C228.096 51.9365 228.711 51.75 229.34 51.75C230.183 51.75 230.992 52.085 231.589 52.6814C232.185 53.2778 232.52 54.0866 232.52 54.93Z" fill="#FFD5E0"/>
<path opacity="0.8" d="M232.52 54.93C232.52 55.5589 232.333 56.1738 231.984 56.6967C231.635 57.2197 231.138 57.6272 230.557 57.8679C229.976 58.1086 229.336 58.1716 228.72 58.0489C228.103 57.9262 227.536 57.6233 227.091 57.1786C226.647 56.7339 226.344 56.1672 226.221 55.5504C226.098 54.9335 226.161 54.2941 226.402 53.7131C226.643 53.132 227.05 52.6353 227.573 52.2859C228.096 51.9365 228.711 51.75 229.34 51.75C230.183 51.75 230.992 52.085 231.589 52.6814C232.185 53.2778 232.52 54.0866 232.52 54.93Z" stroke="#FFD5E0" stroke-width="2" stroke-miterlimit="10" stroke-linecap="round"/>
</g>
</g>
</g>
<defs>
<clipPath id="clip0">
<rect width="283.24" height="142.67" fill="white"/>
</clipPath>
</defs>
</svg>
