<svg xmlns="http://www.w3.org/2000/svg" viewBox="0 0 35 28.75"><defs><style>.cls-2{fill:none;stroke:#202020;stroke-linecap:round;stroke-linejoin:round;stroke-width:.75px}</style></defs><g id="Layer_2" data-name="Layer 2"><g id="Layer_1-2" data-name="Layer 1"><path d="M24.27 25.05a7 7 0 1 1 7-7 7 7 0 0 1-7 7zm0-12.83a5.87 5.87 0 1 0 5.87 5.87 5.88 5.88 0 0 0-5.87-5.87z" style="fill:#ffc62a"/><path class="cls-2" d="m21.6 17.61 2.24 2.24 3.51-3.51"/><path class="cls-2" d="M31.91 28.38H2.68a2.31 2.31 0 0 1-2.3-2.31V2.22A1.83 1.83 0 0 1 2.21.38h30.57a1.84 1.84 0 0 1 1.84 1.84v23.44a2.71 2.71 0 0 1-2.71 2.72z"/><path class="cls-2" d="M5 4.07a.33.33 0 0 0-.65 0 .33.33 0 1 0 .65 0zM8.65 4.07a.32.32 0 1 0-.32.33.32.32 0 0 0 .32-.33zM12.32 4.07a.32.32 0 1 0-.32.33.32.32 0 0 0 .32-.33zM.38 7.7h34.24M3.82 16.04V12.7h8.38v3.34M3.82 18.77h8.38M3.82 20.96h8.38M3.82 23.16h8.38M3.82 16.04h8.38"/></g></g></svg>