<svg xmlns="http://www.w3.org/2000/svg" viewBox="0 0 28.44 28.78"><defs><style>.cls-1{fill:none;stroke:#202020;stroke-miterlimit:10;stroke-width:.75px}</style></defs><g id="Layer_2" data-name="Layer 2"><g id="Layer_1-2" data-name="Layer 1"><path class="cls-1" d="M14.12 11.88 9.24 9V3.26L14.12.43 19 3.26l-4.88 2.87M14.22 11.88 19.2 9V3.26M14.22 5.95v4M21.39 6.13a8.53 8.53 0 0 1 4 2.59 8.63 8.63 0 0 1 1.5 8.38M25.18 16.81l1.03 2.15 2.07-.99M7.05 6.13A8.58 8.58 0 0 0 3 8.72a8.63 8.63 0 0 0-1.5 8.38M3.27 16.81l-1.04 2.15-2.07-.99M11.1 19.52a13.13 13.13 0 0 0-2.94 8.88"/><path class="cls-1" d="M14.22 23.55c-6.25 0-7.87-3.27-7.87-3.27"/><path class="cls-1" d="M22.09 20.28s-1.62 3.27-7.87 3.27"/><path class="cls-1" d="M2.91 28.42a11.31 11.31 0 1 1 22.62 0"/><path class="cls-1" d="M20.28 28.42a13.11 13.11 0 0 0-2.94-8.88M14.22 19.52v8.91"/><path style="fill:#ffc62a" d="M10.58 4.04v4.19l1.9 1.1V4.7l3.28-1.86-1.54-.87-3.64 2.07z"/></g></g></svg>