<svg xmlns="http://www.w3.org/2000/svg" viewBox="0 0 21.93 28.75"><defs><style>.cls-1,.cls-3{fill:none;stroke:#202020;stroke-linecap:round;stroke-width:.75px}.cls-1{stroke-linejoin:round}.cls-3{stroke-miterlimit:10}</style></defs><g id="Layer_2" data-name="Layer 2"><g id="Layer_1-2" data-name="Layer 1"><path class="cls-1" d="M11 28.38S.38 20.18.38 11a10.59 10.59 0 0 1 21.18 0C21.56 20.18 11 28.38 11 28.38z"/><path d="M11 21.27a16.85 16.85 0 0 1-4.73-.68A36.39 36.39 0 0 0 11 25.72a36 36 0 0 0 4.73-5.14 16.55 16.55 0 0 1-4.73.69z" style="fill:#ffc62a"/><path class="cls-1" d="m10.97 4.31 5.96 3.38-5.96 3.44-5.95-3.44 5.95-3.38z"/><path class="cls-3" d="m10.97 18-5.95-3.43V7.69M10.97 18l5.96-3.43V7.69M10.97 11.13v4.56"/></g></g></svg>