<svg xmlns="http://www.w3.org/2000/svg" viewBox="0 0 30.04 28.81"><defs><style>.cls-1,.cls-2{fill:none;stroke:#202020;stroke-linecap:round;stroke-width:.75px}.cls-1{stroke-linejoin:round}.cls-2{stroke-miterlimit:10}.cls-3{fill:#ffc62a}</style></defs><g id="Layer_2" data-name="Layer 2"><g id="Layer_1-2" data-name="Layer 1"><path class="cls-1" d="m19.82 6.8 5.76 3.29-8.35 4.82M12.79 14.9l-8.33-4.81 5.76-3.29"/><path class="cls-2" d="M25.58 17.05v5.23l-2.91 1.68-7.65 4.42-10.56-6.1V16.9M15.02 18.8v5.48"/><path class="cls-1" d="m25.58 10.09 4.09 2.36-10.56 6.09-4.09-2.36"/><path class="cls-1" d="M4.46 10.09.38 12.45l10.55 6.09 4.09-2.36"/><path class="cls-2" d="M19.12 4.47A4.1 4.1 0 1 1 15 .38a4.11 4.11 0 0 1 4.12 4.09z"/><path class="cls-1" d="m13 4.1 1.7 1.7 2.66-2.66"/><path class="cls-3" d="m27.19 12.45-1.55-.9-7.92 4.76 1.39.8 8.08-4.66zM2.68 12.45l1.56-.9 7.91 4.76-1.39.8-8.08-4.66z"/></g></g></svg>