<svg width="82" height="36" fill="none" xmlns="http://www.w3.org/2000/svg"><path d="M71.866 4.725c0 2.61 2.137 4.725 4.774 4.725s4.774-2.116 4.774-4.725C81.414 2.115 79.277 0 76.64 0s-4.774 2.115-4.774 4.725zM35.934 4.725c0 2.61 2.138 4.725 4.774 4.725 2.637 0 4.774-2.116 4.774-4.725 0-2.61-2.137-4.725-4.774-4.725-2.636 0-4.774 2.115-4.774 4.725zM0 4.725C0 7.335 2.139 9.45 4.776 9.45c2.636 0 4.774-2.116 4.774-4.725C9.549 2.115 7.41 0 4.775 0 2.138 0 0 2.115 0 4.725zM71.866 31.114c0 2.61 2.137 4.725 4.774 4.725s4.774-2.115 4.774-4.724c0-2.61-2.137-4.725-4.774-4.725s-4.774 2.115-4.774 4.724zM35.932 31.114c0 2.61 2.138 4.725 4.774 4.725 2.637 0 4.774-2.115 4.774-4.724 0-2.61-2.137-4.725-4.774-4.725-2.636 0-4.774 2.115-4.774 4.724zM0 31.114c0 2.61 2.138 4.725 4.775 4.725 2.636 0 4.774-2.115 4.774-4.724 0-2.61-2.138-4.725-4.774-4.725C2.138 26.39 0 28.505 0 31.114z" fill="#FB3767"/></svg>